%TF.GenerationSoftware,KiCad,Pcbnew,5.1.6-c6e7f7d~87~ubuntu18.04.1*%
%TF.CreationDate,2020-08-08T17:14:56-07:00*%
%TF.ProjectId,Cough-GoNoGo,436f7567-682d-4476-9f4e-6f476f2e6b69,A.01*%
%TF.SameCoordinates,Original*%
%TF.FileFunction,Copper,L2,Bot*%
%TF.FilePolarity,Positive*%
%FSLAX46Y46*%
G04 Gerber Fmt 4.6, Leading zero omitted, Abs format (unit mm)*
G04 Created by KiCad (PCBNEW 5.1.6-c6e7f7d~87~ubuntu18.04.1) date 2020-08-08 17:14:56*
%MOMM*%
%LPD*%
G01*
G04 APERTURE LIST*
%TA.AperFunction,ComponentPad*%
%ADD10C,6.400000*%
%TD*%
%TA.AperFunction,ComponentPad*%
%ADD11O,2.000000X1.700000*%
%TD*%
%TA.AperFunction,ComponentPad*%
%ADD12R,2.200000X2.200000*%
%TD*%
%TA.AperFunction,ComponentPad*%
%ADD13O,2.200000X2.200000*%
%TD*%
%TA.AperFunction,ComponentPad*%
%ADD14C,1.524000*%
%TD*%
%TA.AperFunction,ComponentPad*%
%ADD15C,1.350000*%
%TD*%
%TA.AperFunction,Conductor*%
%ADD16C,0.254000*%
%TD*%
G04 APERTURE END LIST*
D10*
%TO.P,H2,1*%
%TO.N,N/C*%
X168402000Y-110490000D03*
%TD*%
%TO.P,H1,1*%
%TO.N,N/C*%
X131318000Y-110490000D03*
%TD*%
%TO.P,CN1,1*%
%TO.N,/V_CHG*%
%TA.AperFunction,ComponentPad*%
G36*
G01*
X136664000Y-97488000D02*
X138164000Y-97488000D01*
G75*
G02*
X138414000Y-97738000I0J-250000D01*
G01*
X138414000Y-98938000D01*
G75*
G02*
X138164000Y-99188000I-250000J0D01*
G01*
X136664000Y-99188000D01*
G75*
G02*
X136414000Y-98938000I0J250000D01*
G01*
X136414000Y-97738000D01*
G75*
G02*
X136664000Y-97488000I250000J0D01*
G01*
G37*
%TD.AperFunction*%
D11*
%TO.P,CN1,2*%
%TO.N,GND*%
X137414000Y-100838000D03*
%TD*%
%TO.P,CN2,1*%
%TO.N,/V_BATT*%
%TA.AperFunction,ComponentPad*%
G36*
G01*
X136664000Y-119292000D02*
X138164000Y-119292000D01*
G75*
G02*
X138414000Y-119542000I0J-250000D01*
G01*
X138414000Y-120742000D01*
G75*
G02*
X138164000Y-120992000I-250000J0D01*
G01*
X136664000Y-120992000D01*
G75*
G02*
X136414000Y-120742000I0J250000D01*
G01*
X136414000Y-119542000D01*
G75*
G02*
X136664000Y-119292000I250000J0D01*
G01*
G37*
%TD.AperFunction*%
%TO.P,CN2,2*%
%TO.N,GND*%
X137414000Y-122642000D03*
%TD*%
%TO.P,CN3,1*%
%TO.N,/GRN_+*%
%TA.AperFunction,ComponentPad*%
G36*
G01*
X163056000Y-101688000D02*
X161556000Y-101688000D01*
G75*
G02*
X161306000Y-101438000I0J250000D01*
G01*
X161306000Y-100238000D01*
G75*
G02*
X161556000Y-99988000I250000J0D01*
G01*
X163056000Y-99988000D01*
G75*
G02*
X163306000Y-100238000I0J-250000D01*
G01*
X163306000Y-101438000D01*
G75*
G02*
X163056000Y-101688000I-250000J0D01*
G01*
G37*
%TD.AperFunction*%
%TO.P,CN3,2*%
%TO.N,GND*%
X162306000Y-98338000D03*
%TD*%
%TO.P,CN4,2*%
%TO.N,GND*%
X162306000Y-120142000D03*
%TO.P,CN4,1*%
%TO.N,/RED_+*%
%TA.AperFunction,ComponentPad*%
G36*
G01*
X163056000Y-123492000D02*
X161556000Y-123492000D01*
G75*
G02*
X161306000Y-123242000I0J250000D01*
G01*
X161306000Y-122042000D01*
G75*
G02*
X161556000Y-121792000I250000J0D01*
G01*
X163056000Y-121792000D01*
G75*
G02*
X163306000Y-122042000I0J-250000D01*
G01*
X163306000Y-123242000D01*
G75*
G02*
X163056000Y-123492000I-250000J0D01*
G01*
G37*
%TD.AperFunction*%
%TD*%
%TO.P,CN5,1*%
%TO.N,/V_LOAD*%
%TA.AperFunction,ComponentPad*%
G36*
G01*
X155206000Y-119292000D02*
X156706000Y-119292000D01*
G75*
G02*
X156956000Y-119542000I0J-250000D01*
G01*
X156956000Y-120742000D01*
G75*
G02*
X156706000Y-120992000I-250000J0D01*
G01*
X155206000Y-120992000D01*
G75*
G02*
X154956000Y-120742000I0J250000D01*
G01*
X154956000Y-119542000D01*
G75*
G02*
X155206000Y-119292000I250000J0D01*
G01*
G37*
%TD.AperFunction*%
%TO.P,CN5,2*%
%TO.N,/V_BATT*%
X155956000Y-122642000D03*
%TD*%
D12*
%TO.P,D1,1*%
%TO.N,/COIL_+*%
X144780000Y-104394000D03*
D13*
%TO.P,D1,2*%
%TO.N,GND*%
X154940000Y-104394000D03*
%TD*%
D14*
%TO.P,K1,8*%
%TO.N,GND*%
X146050000Y-95758000D03*
%TO.P,K1,7*%
%TO.N,/NC_1*%
X149260000Y-95758000D03*
%TO.P,K1,6*%
%TO.N,/C_1*%
X151460000Y-95758000D03*
%TO.P,K1,5*%
%TO.N,/NO_1*%
X153660000Y-95758000D03*
%TO.P,K1,4*%
%TO.N,/RED_+*%
X153660000Y-100838000D03*
%TO.P,K1,3*%
%TO.N,/V_LOAD*%
X151460000Y-100838000D03*
%TO.P,K1,2*%
%TO.N,/GRN_+*%
X149260000Y-100838000D03*
%TO.P,K1,1*%
%TO.N,/COIL_+*%
X146060000Y-100838000D03*
%TD*%
D15*
%TO.P,S1,1*%
%TO.N,/V_LOAD*%
X153110000Y-112740000D03*
%TO.P,S1,2*%
X153110000Y-108240000D03*
%TO.P,S1,3*%
%TO.N,/COIL_+*%
X146610000Y-108240000D03*
%TO.P,S1,4*%
X146610000Y-112740000D03*
%TD*%
D16*
%TO.N,GND*%
G36*
X145264040Y-94792435D02*
G01*
X146050000Y-95578395D01*
X146835960Y-94792435D01*
X146793434Y-94640000D01*
X148418673Y-94640000D01*
X148369465Y-94672880D01*
X148174880Y-94867465D01*
X148021995Y-95096273D01*
X147916686Y-95350510D01*
X147863000Y-95620408D01*
X147863000Y-95895592D01*
X147916686Y-96165490D01*
X148021995Y-96419727D01*
X148174880Y-96648535D01*
X148369465Y-96843120D01*
X148598273Y-96996005D01*
X148852510Y-97101314D01*
X149122408Y-97155000D01*
X149397592Y-97155000D01*
X149667490Y-97101314D01*
X149921727Y-96996005D01*
X150150535Y-96843120D01*
X150345120Y-96648535D01*
X150360000Y-96626266D01*
X150374880Y-96648535D01*
X150569465Y-96843120D01*
X150798273Y-96996005D01*
X151052510Y-97101314D01*
X151322408Y-97155000D01*
X151597592Y-97155000D01*
X151867490Y-97101314D01*
X152121727Y-96996005D01*
X152350535Y-96843120D01*
X152545120Y-96648535D01*
X152560000Y-96626266D01*
X152574880Y-96648535D01*
X152769465Y-96843120D01*
X152998273Y-96996005D01*
X153252510Y-97101314D01*
X153522408Y-97155000D01*
X153797592Y-97155000D01*
X154067490Y-97101314D01*
X154321727Y-96996005D01*
X154550535Y-96843120D01*
X154745120Y-96648535D01*
X154898005Y-96419727D01*
X155003314Y-96165490D01*
X155057000Y-95895592D01*
X155057000Y-95620408D01*
X155003314Y-95350510D01*
X154898005Y-95096273D01*
X154745120Y-94867465D01*
X154550535Y-94672880D01*
X154501327Y-94640000D01*
X171417721Y-94640000D01*
X171567869Y-94654722D01*
X171681246Y-94688953D01*
X171785819Y-94744555D01*
X171877596Y-94819407D01*
X171953091Y-94910664D01*
X172009419Y-95014844D01*
X172044440Y-95127976D01*
X172060000Y-95276022D01*
X172060000Y-109299856D01*
X171800533Y-108673446D01*
X171380839Y-108045330D01*
X170846670Y-107511161D01*
X170218554Y-107091467D01*
X169520628Y-106802377D01*
X168779715Y-106655000D01*
X168024285Y-106655000D01*
X167283372Y-106802377D01*
X166585446Y-107091467D01*
X165957330Y-107511161D01*
X165423161Y-108045330D01*
X165003467Y-108673446D01*
X164714377Y-109371372D01*
X164567000Y-110112285D01*
X164567000Y-110867715D01*
X164714377Y-111608628D01*
X165003467Y-112306554D01*
X165423161Y-112934670D01*
X165957330Y-113468839D01*
X166585446Y-113888533D01*
X167283372Y-114177623D01*
X168024285Y-114325000D01*
X168779715Y-114325000D01*
X169520628Y-114177623D01*
X170218554Y-113888533D01*
X170846670Y-113468839D01*
X171380839Y-112934670D01*
X171800533Y-112306554D01*
X172060001Y-111680144D01*
X172060001Y-125697711D01*
X172045278Y-125847869D01*
X172011047Y-125961246D01*
X171955446Y-126065817D01*
X171880594Y-126157595D01*
X171789335Y-126233091D01*
X171685160Y-126289419D01*
X171572024Y-126324440D01*
X171423979Y-126340000D01*
X128302279Y-126340000D01*
X128152131Y-126325278D01*
X128038754Y-126291047D01*
X127934183Y-126235446D01*
X127842405Y-126160594D01*
X127766909Y-126069335D01*
X127710581Y-125965160D01*
X127675560Y-125852024D01*
X127660000Y-125703979D01*
X127660000Y-122998890D01*
X135822524Y-122998890D01*
X135824446Y-123011261D01*
X135924146Y-123285009D01*
X136075336Y-123534046D01*
X136272205Y-123748802D01*
X136507188Y-123921025D01*
X136771255Y-124044096D01*
X137054258Y-124113285D01*
X137287000Y-123969232D01*
X137287000Y-122769000D01*
X137541000Y-122769000D01*
X137541000Y-123969232D01*
X137773742Y-124113285D01*
X138056745Y-124044096D01*
X138320812Y-123921025D01*
X138555795Y-123748802D01*
X138752664Y-123534046D01*
X138903854Y-123285009D01*
X139003554Y-123011261D01*
X139005476Y-122998890D01*
X138884155Y-122769000D01*
X137541000Y-122769000D01*
X137287000Y-122769000D01*
X135943845Y-122769000D01*
X135822524Y-122998890D01*
X127660000Y-122998890D01*
X127660000Y-122642000D01*
X154313815Y-122642000D01*
X154342487Y-122933111D01*
X154427401Y-123213034D01*
X154565294Y-123471014D01*
X154750866Y-123697134D01*
X154976986Y-123882706D01*
X155234966Y-124020599D01*
X155514889Y-124105513D01*
X155733050Y-124127000D01*
X156178950Y-124127000D01*
X156397111Y-124105513D01*
X156677034Y-124020599D01*
X156935014Y-123882706D01*
X157161134Y-123697134D01*
X157346706Y-123471014D01*
X157484599Y-123213034D01*
X157569513Y-122933111D01*
X157598185Y-122642000D01*
X157569513Y-122350889D01*
X157484599Y-122070966D01*
X157469117Y-122042000D01*
X160667928Y-122042000D01*
X160667928Y-123242000D01*
X160684992Y-123415254D01*
X160735528Y-123581850D01*
X160817595Y-123735386D01*
X160928038Y-123869962D01*
X161062614Y-123980405D01*
X161216150Y-124062472D01*
X161382746Y-124113008D01*
X161556000Y-124130072D01*
X163056000Y-124130072D01*
X163229254Y-124113008D01*
X163395850Y-124062472D01*
X163549386Y-123980405D01*
X163683962Y-123869962D01*
X163794405Y-123735386D01*
X163876472Y-123581850D01*
X163927008Y-123415254D01*
X163944072Y-123242000D01*
X163944072Y-122042000D01*
X163927008Y-121868746D01*
X163876472Y-121702150D01*
X163794405Y-121548614D01*
X163683962Y-121414038D01*
X163549386Y-121303595D01*
X163447407Y-121249086D01*
X163447795Y-121248802D01*
X163644664Y-121034046D01*
X163795854Y-120785009D01*
X163895554Y-120511261D01*
X163897476Y-120498890D01*
X163776155Y-120269000D01*
X162433000Y-120269000D01*
X162433000Y-120289000D01*
X162179000Y-120289000D01*
X162179000Y-120269000D01*
X160835845Y-120269000D01*
X160714524Y-120498890D01*
X160716446Y-120511261D01*
X160816146Y-120785009D01*
X160967336Y-121034046D01*
X161164205Y-121248802D01*
X161164593Y-121249086D01*
X161062614Y-121303595D01*
X160928038Y-121414038D01*
X160817595Y-121548614D01*
X160735528Y-121702150D01*
X160684992Y-121868746D01*
X160667928Y-122042000D01*
X157469117Y-122042000D01*
X157346706Y-121812986D01*
X157161134Y-121586866D01*
X157097663Y-121534777D01*
X157199386Y-121480405D01*
X157333962Y-121369962D01*
X157444405Y-121235386D01*
X157526472Y-121081850D01*
X157577008Y-120915254D01*
X157594072Y-120742000D01*
X157594072Y-119785110D01*
X160714524Y-119785110D01*
X160835845Y-120015000D01*
X162179000Y-120015000D01*
X162179000Y-118814768D01*
X162433000Y-118814768D01*
X162433000Y-120015000D01*
X163776155Y-120015000D01*
X163897476Y-119785110D01*
X163895554Y-119772739D01*
X163795854Y-119498991D01*
X163644664Y-119249954D01*
X163447795Y-119035198D01*
X163212812Y-118862975D01*
X162948745Y-118739904D01*
X162665742Y-118670715D01*
X162433000Y-118814768D01*
X162179000Y-118814768D01*
X161946258Y-118670715D01*
X161663255Y-118739904D01*
X161399188Y-118862975D01*
X161164205Y-119035198D01*
X160967336Y-119249954D01*
X160816146Y-119498991D01*
X160716446Y-119772739D01*
X160714524Y-119785110D01*
X157594072Y-119785110D01*
X157594072Y-119542000D01*
X157577008Y-119368746D01*
X157526472Y-119202150D01*
X157444405Y-119048614D01*
X157333962Y-118914038D01*
X157199386Y-118803595D01*
X157045850Y-118721528D01*
X156879254Y-118670992D01*
X156706000Y-118653928D01*
X155206000Y-118653928D01*
X155032746Y-118670992D01*
X154866150Y-118721528D01*
X154712614Y-118803595D01*
X154578038Y-118914038D01*
X154467595Y-119048614D01*
X154385528Y-119202150D01*
X154334992Y-119368746D01*
X154317928Y-119542000D01*
X154317928Y-120742000D01*
X154334992Y-120915254D01*
X154385528Y-121081850D01*
X154467595Y-121235386D01*
X154578038Y-121369962D01*
X154712614Y-121480405D01*
X154814337Y-121534777D01*
X154750866Y-121586866D01*
X154565294Y-121812986D01*
X154427401Y-122070966D01*
X154342487Y-122350889D01*
X154313815Y-122642000D01*
X127660000Y-122642000D01*
X127660000Y-119542000D01*
X135775928Y-119542000D01*
X135775928Y-120742000D01*
X135792992Y-120915254D01*
X135843528Y-121081850D01*
X135925595Y-121235386D01*
X136036038Y-121369962D01*
X136170614Y-121480405D01*
X136272593Y-121534914D01*
X136272205Y-121535198D01*
X136075336Y-121749954D01*
X135924146Y-121998991D01*
X135824446Y-122272739D01*
X135822524Y-122285110D01*
X135943845Y-122515000D01*
X137287000Y-122515000D01*
X137287000Y-122495000D01*
X137541000Y-122495000D01*
X137541000Y-122515000D01*
X138884155Y-122515000D01*
X139005476Y-122285110D01*
X139003554Y-122272739D01*
X138903854Y-121998991D01*
X138752664Y-121749954D01*
X138555795Y-121535198D01*
X138555407Y-121534914D01*
X138657386Y-121480405D01*
X138791962Y-121369962D01*
X138902405Y-121235386D01*
X138984472Y-121081850D01*
X139035008Y-120915254D01*
X139052072Y-120742000D01*
X139052072Y-119542000D01*
X139035008Y-119368746D01*
X138984472Y-119202150D01*
X138902405Y-119048614D01*
X138791962Y-118914038D01*
X138657386Y-118803595D01*
X138503850Y-118721528D01*
X138337254Y-118670992D01*
X138164000Y-118653928D01*
X136664000Y-118653928D01*
X136490746Y-118670992D01*
X136324150Y-118721528D01*
X136170614Y-118803595D01*
X136036038Y-118914038D01*
X135925595Y-119048614D01*
X135843528Y-119202150D01*
X135792992Y-119368746D01*
X135775928Y-119542000D01*
X127660000Y-119542000D01*
X127660000Y-111680144D01*
X127919467Y-112306554D01*
X128339161Y-112934670D01*
X128873330Y-113468839D01*
X129501446Y-113888533D01*
X130199372Y-114177623D01*
X130940285Y-114325000D01*
X131695715Y-114325000D01*
X132436628Y-114177623D01*
X133134554Y-113888533D01*
X133762670Y-113468839D01*
X134296839Y-112934670D01*
X134513124Y-112610976D01*
X145300000Y-112610976D01*
X145300000Y-112869024D01*
X145350342Y-113122113D01*
X145449093Y-113360518D01*
X145592456Y-113575077D01*
X145774923Y-113757544D01*
X145989482Y-113900907D01*
X146227887Y-113999658D01*
X146480976Y-114050000D01*
X146739024Y-114050000D01*
X146992113Y-113999658D01*
X147230518Y-113900907D01*
X147445077Y-113757544D01*
X147627544Y-113575077D01*
X147770907Y-113360518D01*
X147869658Y-113122113D01*
X147920000Y-112869024D01*
X147920000Y-112610976D01*
X151800000Y-112610976D01*
X151800000Y-112869024D01*
X151850342Y-113122113D01*
X151949093Y-113360518D01*
X152092456Y-113575077D01*
X152274923Y-113757544D01*
X152489482Y-113900907D01*
X152727887Y-113999658D01*
X152980976Y-114050000D01*
X153239024Y-114050000D01*
X153492113Y-113999658D01*
X153730518Y-113900907D01*
X153945077Y-113757544D01*
X154127544Y-113575077D01*
X154270907Y-113360518D01*
X154369658Y-113122113D01*
X154420000Y-112869024D01*
X154420000Y-112610976D01*
X154369658Y-112357887D01*
X154270907Y-112119482D01*
X154127544Y-111904923D01*
X153945077Y-111722456D01*
X153730518Y-111579093D01*
X153492113Y-111480342D01*
X153239024Y-111430000D01*
X152980976Y-111430000D01*
X152727887Y-111480342D01*
X152489482Y-111579093D01*
X152274923Y-111722456D01*
X152092456Y-111904923D01*
X151949093Y-112119482D01*
X151850342Y-112357887D01*
X151800000Y-112610976D01*
X147920000Y-112610976D01*
X147869658Y-112357887D01*
X147770907Y-112119482D01*
X147627544Y-111904923D01*
X147445077Y-111722456D01*
X147230518Y-111579093D01*
X146992113Y-111480342D01*
X146739024Y-111430000D01*
X146480976Y-111430000D01*
X146227887Y-111480342D01*
X145989482Y-111579093D01*
X145774923Y-111722456D01*
X145592456Y-111904923D01*
X145449093Y-112119482D01*
X145350342Y-112357887D01*
X145300000Y-112610976D01*
X134513124Y-112610976D01*
X134716533Y-112306554D01*
X135005623Y-111608628D01*
X135153000Y-110867715D01*
X135153000Y-110112285D01*
X135005623Y-109371372D01*
X134716533Y-108673446D01*
X134340703Y-108110976D01*
X145300000Y-108110976D01*
X145300000Y-108369024D01*
X145350342Y-108622113D01*
X145449093Y-108860518D01*
X145592456Y-109075077D01*
X145774923Y-109257544D01*
X145989482Y-109400907D01*
X146227887Y-109499658D01*
X146480976Y-109550000D01*
X146739024Y-109550000D01*
X146992113Y-109499658D01*
X147230518Y-109400907D01*
X147445077Y-109257544D01*
X147627544Y-109075077D01*
X147770907Y-108860518D01*
X147869658Y-108622113D01*
X147920000Y-108369024D01*
X147920000Y-108110976D01*
X151800000Y-108110976D01*
X151800000Y-108369024D01*
X151850342Y-108622113D01*
X151949093Y-108860518D01*
X152092456Y-109075077D01*
X152274923Y-109257544D01*
X152489482Y-109400907D01*
X152727887Y-109499658D01*
X152980976Y-109550000D01*
X153239024Y-109550000D01*
X153492113Y-109499658D01*
X153730518Y-109400907D01*
X153945077Y-109257544D01*
X154127544Y-109075077D01*
X154270907Y-108860518D01*
X154369658Y-108622113D01*
X154420000Y-108369024D01*
X154420000Y-108110976D01*
X154369658Y-107857887D01*
X154270907Y-107619482D01*
X154127544Y-107404923D01*
X153945077Y-107222456D01*
X153730518Y-107079093D01*
X153492113Y-106980342D01*
X153239024Y-106930000D01*
X152980976Y-106930000D01*
X152727887Y-106980342D01*
X152489482Y-107079093D01*
X152274923Y-107222456D01*
X152092456Y-107404923D01*
X151949093Y-107619482D01*
X151850342Y-107857887D01*
X151800000Y-108110976D01*
X147920000Y-108110976D01*
X147869658Y-107857887D01*
X147770907Y-107619482D01*
X147627544Y-107404923D01*
X147445077Y-107222456D01*
X147230518Y-107079093D01*
X146992113Y-106980342D01*
X146739024Y-106930000D01*
X146480976Y-106930000D01*
X146227887Y-106980342D01*
X145989482Y-107079093D01*
X145774923Y-107222456D01*
X145592456Y-107404923D01*
X145449093Y-107619482D01*
X145350342Y-107857887D01*
X145300000Y-108110976D01*
X134340703Y-108110976D01*
X134296839Y-108045330D01*
X133762670Y-107511161D01*
X133134554Y-107091467D01*
X132436628Y-106802377D01*
X131695715Y-106655000D01*
X130940285Y-106655000D01*
X130199372Y-106802377D01*
X129501446Y-107091467D01*
X128873330Y-107511161D01*
X128339161Y-108045330D01*
X127919467Y-108673446D01*
X127660000Y-109299856D01*
X127660000Y-103294000D01*
X143041928Y-103294000D01*
X143041928Y-105494000D01*
X143054188Y-105618482D01*
X143090498Y-105738180D01*
X143149463Y-105848494D01*
X143228815Y-105945185D01*
X143325506Y-106024537D01*
X143435820Y-106083502D01*
X143555518Y-106119812D01*
X143680000Y-106132072D01*
X145880000Y-106132072D01*
X146004482Y-106119812D01*
X146124180Y-106083502D01*
X146234494Y-106024537D01*
X146331185Y-105945185D01*
X146410537Y-105848494D01*
X146469502Y-105738180D01*
X146505812Y-105618482D01*
X146518072Y-105494000D01*
X146518072Y-104790122D01*
X153250825Y-104790122D01*
X153315425Y-105003094D01*
X153465469Y-105308329D01*
X153672178Y-105578427D01*
X153927609Y-105803008D01*
X154221946Y-105973442D01*
X154543877Y-106083179D01*
X154813000Y-105965600D01*
X154813000Y-104521000D01*
X155067000Y-104521000D01*
X155067000Y-105965600D01*
X155336123Y-106083179D01*
X155658054Y-105973442D01*
X155952391Y-105803008D01*
X156207822Y-105578427D01*
X156414531Y-105308329D01*
X156564575Y-105003094D01*
X156629175Y-104790122D01*
X156511125Y-104521000D01*
X155067000Y-104521000D01*
X154813000Y-104521000D01*
X153368875Y-104521000D01*
X153250825Y-104790122D01*
X146518072Y-104790122D01*
X146518072Y-103997878D01*
X153250825Y-103997878D01*
X153368875Y-104267000D01*
X154813000Y-104267000D01*
X154813000Y-102822400D01*
X155067000Y-102822400D01*
X155067000Y-104267000D01*
X156511125Y-104267000D01*
X156629175Y-103997878D01*
X156564575Y-103784906D01*
X156414531Y-103479671D01*
X156207822Y-103209573D01*
X155952391Y-102984992D01*
X155658054Y-102814558D01*
X155336123Y-102704821D01*
X155067000Y-102822400D01*
X154813000Y-102822400D01*
X154543877Y-102704821D01*
X154221946Y-102814558D01*
X153927609Y-102984992D01*
X153672178Y-103209573D01*
X153465469Y-103479671D01*
X153315425Y-103784906D01*
X153250825Y-103997878D01*
X146518072Y-103997878D01*
X146518072Y-103294000D01*
X146505812Y-103169518D01*
X146469502Y-103049820D01*
X146410537Y-102939506D01*
X146331185Y-102842815D01*
X146234494Y-102763463D01*
X146124180Y-102704498D01*
X146004482Y-102668188D01*
X145880000Y-102655928D01*
X143680000Y-102655928D01*
X143555518Y-102668188D01*
X143435820Y-102704498D01*
X143325506Y-102763463D01*
X143228815Y-102842815D01*
X143149463Y-102939506D01*
X143090498Y-103049820D01*
X143054188Y-103169518D01*
X143041928Y-103294000D01*
X127660000Y-103294000D01*
X127660000Y-101194890D01*
X135822524Y-101194890D01*
X135824446Y-101207261D01*
X135924146Y-101481009D01*
X136075336Y-101730046D01*
X136272205Y-101944802D01*
X136507188Y-102117025D01*
X136771255Y-102240096D01*
X137054258Y-102309285D01*
X137287000Y-102165232D01*
X137287000Y-100965000D01*
X137541000Y-100965000D01*
X137541000Y-102165232D01*
X137773742Y-102309285D01*
X138056745Y-102240096D01*
X138320812Y-102117025D01*
X138555795Y-101944802D01*
X138752664Y-101730046D01*
X138903854Y-101481009D01*
X139003554Y-101207261D01*
X139005476Y-101194890D01*
X138884155Y-100965000D01*
X137541000Y-100965000D01*
X137287000Y-100965000D01*
X135943845Y-100965000D01*
X135822524Y-101194890D01*
X127660000Y-101194890D01*
X127660000Y-97738000D01*
X135775928Y-97738000D01*
X135775928Y-98938000D01*
X135792992Y-99111254D01*
X135843528Y-99277850D01*
X135925595Y-99431386D01*
X136036038Y-99565962D01*
X136170614Y-99676405D01*
X136272593Y-99730914D01*
X136272205Y-99731198D01*
X136075336Y-99945954D01*
X135924146Y-100194991D01*
X135824446Y-100468739D01*
X135822524Y-100481110D01*
X135943845Y-100711000D01*
X137287000Y-100711000D01*
X137287000Y-100691000D01*
X137541000Y-100691000D01*
X137541000Y-100711000D01*
X138884155Y-100711000D01*
X138889744Y-100700408D01*
X144663000Y-100700408D01*
X144663000Y-100975592D01*
X144716686Y-101245490D01*
X144821995Y-101499727D01*
X144974880Y-101728535D01*
X145169465Y-101923120D01*
X145398273Y-102076005D01*
X145652510Y-102181314D01*
X145922408Y-102235000D01*
X146197592Y-102235000D01*
X146467490Y-102181314D01*
X146721727Y-102076005D01*
X146950535Y-101923120D01*
X147145120Y-101728535D01*
X147298005Y-101499727D01*
X147403314Y-101245490D01*
X147457000Y-100975592D01*
X147457000Y-100700408D01*
X147863000Y-100700408D01*
X147863000Y-100975592D01*
X147916686Y-101245490D01*
X148021995Y-101499727D01*
X148174880Y-101728535D01*
X148369465Y-101923120D01*
X148598273Y-102076005D01*
X148852510Y-102181314D01*
X149122408Y-102235000D01*
X149397592Y-102235000D01*
X149667490Y-102181314D01*
X149921727Y-102076005D01*
X150150535Y-101923120D01*
X150345120Y-101728535D01*
X150360000Y-101706266D01*
X150374880Y-101728535D01*
X150569465Y-101923120D01*
X150798273Y-102076005D01*
X151052510Y-102181314D01*
X151322408Y-102235000D01*
X151597592Y-102235000D01*
X151867490Y-102181314D01*
X152121727Y-102076005D01*
X152350535Y-101923120D01*
X152545120Y-101728535D01*
X152560000Y-101706266D01*
X152574880Y-101728535D01*
X152769465Y-101923120D01*
X152998273Y-102076005D01*
X153252510Y-102181314D01*
X153522408Y-102235000D01*
X153797592Y-102235000D01*
X154067490Y-102181314D01*
X154321727Y-102076005D01*
X154550535Y-101923120D01*
X154745120Y-101728535D01*
X154898005Y-101499727D01*
X155003314Y-101245490D01*
X155057000Y-100975592D01*
X155057000Y-100700408D01*
X155003314Y-100430510D01*
X154923574Y-100238000D01*
X160667928Y-100238000D01*
X160667928Y-101438000D01*
X160684992Y-101611254D01*
X160735528Y-101777850D01*
X160817595Y-101931386D01*
X160928038Y-102065962D01*
X161062614Y-102176405D01*
X161216150Y-102258472D01*
X161382746Y-102309008D01*
X161556000Y-102326072D01*
X163056000Y-102326072D01*
X163229254Y-102309008D01*
X163395850Y-102258472D01*
X163549386Y-102176405D01*
X163683962Y-102065962D01*
X163794405Y-101931386D01*
X163876472Y-101777850D01*
X163927008Y-101611254D01*
X163944072Y-101438000D01*
X163944072Y-100238000D01*
X163927008Y-100064746D01*
X163876472Y-99898150D01*
X163794405Y-99744614D01*
X163683962Y-99610038D01*
X163549386Y-99499595D01*
X163447407Y-99445086D01*
X163447795Y-99444802D01*
X163644664Y-99230046D01*
X163795854Y-98981009D01*
X163895554Y-98707261D01*
X163897476Y-98694890D01*
X163776155Y-98465000D01*
X162433000Y-98465000D01*
X162433000Y-98485000D01*
X162179000Y-98485000D01*
X162179000Y-98465000D01*
X160835845Y-98465000D01*
X160714524Y-98694890D01*
X160716446Y-98707261D01*
X160816146Y-98981009D01*
X160967336Y-99230046D01*
X161164205Y-99444802D01*
X161164593Y-99445086D01*
X161062614Y-99499595D01*
X160928038Y-99610038D01*
X160817595Y-99744614D01*
X160735528Y-99898150D01*
X160684992Y-100064746D01*
X160667928Y-100238000D01*
X154923574Y-100238000D01*
X154898005Y-100176273D01*
X154745120Y-99947465D01*
X154550535Y-99752880D01*
X154321727Y-99599995D01*
X154067490Y-99494686D01*
X153797592Y-99441000D01*
X153522408Y-99441000D01*
X153252510Y-99494686D01*
X152998273Y-99599995D01*
X152769465Y-99752880D01*
X152574880Y-99947465D01*
X152560000Y-99969734D01*
X152545120Y-99947465D01*
X152350535Y-99752880D01*
X152121727Y-99599995D01*
X151867490Y-99494686D01*
X151597592Y-99441000D01*
X151322408Y-99441000D01*
X151052510Y-99494686D01*
X150798273Y-99599995D01*
X150569465Y-99752880D01*
X150374880Y-99947465D01*
X150360000Y-99969734D01*
X150345120Y-99947465D01*
X150150535Y-99752880D01*
X149921727Y-99599995D01*
X149667490Y-99494686D01*
X149397592Y-99441000D01*
X149122408Y-99441000D01*
X148852510Y-99494686D01*
X148598273Y-99599995D01*
X148369465Y-99752880D01*
X148174880Y-99947465D01*
X148021995Y-100176273D01*
X147916686Y-100430510D01*
X147863000Y-100700408D01*
X147457000Y-100700408D01*
X147403314Y-100430510D01*
X147298005Y-100176273D01*
X147145120Y-99947465D01*
X146950535Y-99752880D01*
X146721727Y-99599995D01*
X146467490Y-99494686D01*
X146197592Y-99441000D01*
X145922408Y-99441000D01*
X145652510Y-99494686D01*
X145398273Y-99599995D01*
X145169465Y-99752880D01*
X144974880Y-99947465D01*
X144821995Y-100176273D01*
X144716686Y-100430510D01*
X144663000Y-100700408D01*
X138889744Y-100700408D01*
X139005476Y-100481110D01*
X139003554Y-100468739D01*
X138903854Y-100194991D01*
X138752664Y-99945954D01*
X138555795Y-99731198D01*
X138555407Y-99730914D01*
X138657386Y-99676405D01*
X138791962Y-99565962D01*
X138902405Y-99431386D01*
X138984472Y-99277850D01*
X139035008Y-99111254D01*
X139052072Y-98938000D01*
X139052072Y-97981110D01*
X160714524Y-97981110D01*
X160835845Y-98211000D01*
X162179000Y-98211000D01*
X162179000Y-97010768D01*
X162433000Y-97010768D01*
X162433000Y-98211000D01*
X163776155Y-98211000D01*
X163897476Y-97981110D01*
X163895554Y-97968739D01*
X163795854Y-97694991D01*
X163644664Y-97445954D01*
X163447795Y-97231198D01*
X163212812Y-97058975D01*
X162948745Y-96935904D01*
X162665742Y-96866715D01*
X162433000Y-97010768D01*
X162179000Y-97010768D01*
X161946258Y-96866715D01*
X161663255Y-96935904D01*
X161399188Y-97058975D01*
X161164205Y-97231198D01*
X160967336Y-97445954D01*
X160816146Y-97694991D01*
X160716446Y-97968739D01*
X160714524Y-97981110D01*
X139052072Y-97981110D01*
X139052072Y-97738000D01*
X139035008Y-97564746D01*
X138984472Y-97398150D01*
X138902405Y-97244614D01*
X138791962Y-97110038D01*
X138657386Y-96999595D01*
X138503850Y-96917528D01*
X138337254Y-96866992D01*
X138164000Y-96849928D01*
X136664000Y-96849928D01*
X136490746Y-96866992D01*
X136324150Y-96917528D01*
X136170614Y-96999595D01*
X136036038Y-97110038D01*
X135925595Y-97244614D01*
X135843528Y-97398150D01*
X135792992Y-97564746D01*
X135775928Y-97738000D01*
X127660000Y-97738000D01*
X127660000Y-96723565D01*
X145264040Y-96723565D01*
X145331020Y-96963656D01*
X145580048Y-97080756D01*
X145847135Y-97147023D01*
X146122017Y-97159910D01*
X146394133Y-97118922D01*
X146653023Y-97025636D01*
X146768980Y-96963656D01*
X146835960Y-96723565D01*
X146050000Y-95937605D01*
X145264040Y-96723565D01*
X127660000Y-96723565D01*
X127660000Y-95830017D01*
X144648090Y-95830017D01*
X144689078Y-96102133D01*
X144782364Y-96361023D01*
X144844344Y-96476980D01*
X145084435Y-96543960D01*
X145870395Y-95758000D01*
X146229605Y-95758000D01*
X147015565Y-96543960D01*
X147255656Y-96476980D01*
X147372756Y-96227952D01*
X147439023Y-95960865D01*
X147451910Y-95685983D01*
X147410922Y-95413867D01*
X147317636Y-95154977D01*
X147255656Y-95039020D01*
X147015565Y-94972040D01*
X146229605Y-95758000D01*
X145870395Y-95758000D01*
X145084435Y-94972040D01*
X144844344Y-95039020D01*
X144727244Y-95288048D01*
X144660977Y-95555135D01*
X144648090Y-95830017D01*
X127660000Y-95830017D01*
X127660000Y-95282279D01*
X127674722Y-95132131D01*
X127708953Y-95018754D01*
X127764555Y-94914181D01*
X127839407Y-94822404D01*
X127930664Y-94746909D01*
X128034844Y-94690581D01*
X128147976Y-94655560D01*
X128296022Y-94640000D01*
X145306566Y-94640000D01*
X145264040Y-94792435D01*
G37*
X145264040Y-94792435D02*
X146050000Y-95578395D01*
X146835960Y-94792435D01*
X146793434Y-94640000D01*
X148418673Y-94640000D01*
X148369465Y-94672880D01*
X148174880Y-94867465D01*
X148021995Y-95096273D01*
X147916686Y-95350510D01*
X147863000Y-95620408D01*
X147863000Y-95895592D01*
X147916686Y-96165490D01*
X148021995Y-96419727D01*
X148174880Y-96648535D01*
X148369465Y-96843120D01*
X148598273Y-96996005D01*
X148852510Y-97101314D01*
X149122408Y-97155000D01*
X149397592Y-97155000D01*
X149667490Y-97101314D01*
X149921727Y-96996005D01*
X150150535Y-96843120D01*
X150345120Y-96648535D01*
X150360000Y-96626266D01*
X150374880Y-96648535D01*
X150569465Y-96843120D01*
X150798273Y-96996005D01*
X151052510Y-97101314D01*
X151322408Y-97155000D01*
X151597592Y-97155000D01*
X151867490Y-97101314D01*
X152121727Y-96996005D01*
X152350535Y-96843120D01*
X152545120Y-96648535D01*
X152560000Y-96626266D01*
X152574880Y-96648535D01*
X152769465Y-96843120D01*
X152998273Y-96996005D01*
X153252510Y-97101314D01*
X153522408Y-97155000D01*
X153797592Y-97155000D01*
X154067490Y-97101314D01*
X154321727Y-96996005D01*
X154550535Y-96843120D01*
X154745120Y-96648535D01*
X154898005Y-96419727D01*
X155003314Y-96165490D01*
X155057000Y-95895592D01*
X155057000Y-95620408D01*
X155003314Y-95350510D01*
X154898005Y-95096273D01*
X154745120Y-94867465D01*
X154550535Y-94672880D01*
X154501327Y-94640000D01*
X171417721Y-94640000D01*
X171567869Y-94654722D01*
X171681246Y-94688953D01*
X171785819Y-94744555D01*
X171877596Y-94819407D01*
X171953091Y-94910664D01*
X172009419Y-95014844D01*
X172044440Y-95127976D01*
X172060000Y-95276022D01*
X172060000Y-109299856D01*
X171800533Y-108673446D01*
X171380839Y-108045330D01*
X170846670Y-107511161D01*
X170218554Y-107091467D01*
X169520628Y-106802377D01*
X168779715Y-106655000D01*
X168024285Y-106655000D01*
X167283372Y-106802377D01*
X166585446Y-107091467D01*
X165957330Y-107511161D01*
X165423161Y-108045330D01*
X165003467Y-108673446D01*
X164714377Y-109371372D01*
X164567000Y-110112285D01*
X164567000Y-110867715D01*
X164714377Y-111608628D01*
X165003467Y-112306554D01*
X165423161Y-112934670D01*
X165957330Y-113468839D01*
X166585446Y-113888533D01*
X167283372Y-114177623D01*
X168024285Y-114325000D01*
X168779715Y-114325000D01*
X169520628Y-114177623D01*
X170218554Y-113888533D01*
X170846670Y-113468839D01*
X171380839Y-112934670D01*
X171800533Y-112306554D01*
X172060001Y-111680144D01*
X172060001Y-125697711D01*
X172045278Y-125847869D01*
X172011047Y-125961246D01*
X171955446Y-126065817D01*
X171880594Y-126157595D01*
X171789335Y-126233091D01*
X171685160Y-126289419D01*
X171572024Y-126324440D01*
X171423979Y-126340000D01*
X128302279Y-126340000D01*
X128152131Y-126325278D01*
X128038754Y-126291047D01*
X127934183Y-126235446D01*
X127842405Y-126160594D01*
X127766909Y-126069335D01*
X127710581Y-125965160D01*
X127675560Y-125852024D01*
X127660000Y-125703979D01*
X127660000Y-122998890D01*
X135822524Y-122998890D01*
X135824446Y-123011261D01*
X135924146Y-123285009D01*
X136075336Y-123534046D01*
X136272205Y-123748802D01*
X136507188Y-123921025D01*
X136771255Y-124044096D01*
X137054258Y-124113285D01*
X137287000Y-123969232D01*
X137287000Y-122769000D01*
X137541000Y-122769000D01*
X137541000Y-123969232D01*
X137773742Y-124113285D01*
X138056745Y-124044096D01*
X138320812Y-123921025D01*
X138555795Y-123748802D01*
X138752664Y-123534046D01*
X138903854Y-123285009D01*
X139003554Y-123011261D01*
X139005476Y-122998890D01*
X138884155Y-122769000D01*
X137541000Y-122769000D01*
X137287000Y-122769000D01*
X135943845Y-122769000D01*
X135822524Y-122998890D01*
X127660000Y-122998890D01*
X127660000Y-122642000D01*
X154313815Y-122642000D01*
X154342487Y-122933111D01*
X154427401Y-123213034D01*
X154565294Y-123471014D01*
X154750866Y-123697134D01*
X154976986Y-123882706D01*
X155234966Y-124020599D01*
X155514889Y-124105513D01*
X155733050Y-124127000D01*
X156178950Y-124127000D01*
X156397111Y-124105513D01*
X156677034Y-124020599D01*
X156935014Y-123882706D01*
X157161134Y-123697134D01*
X157346706Y-123471014D01*
X157484599Y-123213034D01*
X157569513Y-122933111D01*
X157598185Y-122642000D01*
X157569513Y-122350889D01*
X157484599Y-122070966D01*
X157469117Y-122042000D01*
X160667928Y-122042000D01*
X160667928Y-123242000D01*
X160684992Y-123415254D01*
X160735528Y-123581850D01*
X160817595Y-123735386D01*
X160928038Y-123869962D01*
X161062614Y-123980405D01*
X161216150Y-124062472D01*
X161382746Y-124113008D01*
X161556000Y-124130072D01*
X163056000Y-124130072D01*
X163229254Y-124113008D01*
X163395850Y-124062472D01*
X163549386Y-123980405D01*
X163683962Y-123869962D01*
X163794405Y-123735386D01*
X163876472Y-123581850D01*
X163927008Y-123415254D01*
X163944072Y-123242000D01*
X163944072Y-122042000D01*
X163927008Y-121868746D01*
X163876472Y-121702150D01*
X163794405Y-121548614D01*
X163683962Y-121414038D01*
X163549386Y-121303595D01*
X163447407Y-121249086D01*
X163447795Y-121248802D01*
X163644664Y-121034046D01*
X163795854Y-120785009D01*
X163895554Y-120511261D01*
X163897476Y-120498890D01*
X163776155Y-120269000D01*
X162433000Y-120269000D01*
X162433000Y-120289000D01*
X162179000Y-120289000D01*
X162179000Y-120269000D01*
X160835845Y-120269000D01*
X160714524Y-120498890D01*
X160716446Y-120511261D01*
X160816146Y-120785009D01*
X160967336Y-121034046D01*
X161164205Y-121248802D01*
X161164593Y-121249086D01*
X161062614Y-121303595D01*
X160928038Y-121414038D01*
X160817595Y-121548614D01*
X160735528Y-121702150D01*
X160684992Y-121868746D01*
X160667928Y-122042000D01*
X157469117Y-122042000D01*
X157346706Y-121812986D01*
X157161134Y-121586866D01*
X157097663Y-121534777D01*
X157199386Y-121480405D01*
X157333962Y-121369962D01*
X157444405Y-121235386D01*
X157526472Y-121081850D01*
X157577008Y-120915254D01*
X157594072Y-120742000D01*
X157594072Y-119785110D01*
X160714524Y-119785110D01*
X160835845Y-120015000D01*
X162179000Y-120015000D01*
X162179000Y-118814768D01*
X162433000Y-118814768D01*
X162433000Y-120015000D01*
X163776155Y-120015000D01*
X163897476Y-119785110D01*
X163895554Y-119772739D01*
X163795854Y-119498991D01*
X163644664Y-119249954D01*
X163447795Y-119035198D01*
X163212812Y-118862975D01*
X162948745Y-118739904D01*
X162665742Y-118670715D01*
X162433000Y-118814768D01*
X162179000Y-118814768D01*
X161946258Y-118670715D01*
X161663255Y-118739904D01*
X161399188Y-118862975D01*
X161164205Y-119035198D01*
X160967336Y-119249954D01*
X160816146Y-119498991D01*
X160716446Y-119772739D01*
X160714524Y-119785110D01*
X157594072Y-119785110D01*
X157594072Y-119542000D01*
X157577008Y-119368746D01*
X157526472Y-119202150D01*
X157444405Y-119048614D01*
X157333962Y-118914038D01*
X157199386Y-118803595D01*
X157045850Y-118721528D01*
X156879254Y-118670992D01*
X156706000Y-118653928D01*
X155206000Y-118653928D01*
X155032746Y-118670992D01*
X154866150Y-118721528D01*
X154712614Y-118803595D01*
X154578038Y-118914038D01*
X154467595Y-119048614D01*
X154385528Y-119202150D01*
X154334992Y-119368746D01*
X154317928Y-119542000D01*
X154317928Y-120742000D01*
X154334992Y-120915254D01*
X154385528Y-121081850D01*
X154467595Y-121235386D01*
X154578038Y-121369962D01*
X154712614Y-121480405D01*
X154814337Y-121534777D01*
X154750866Y-121586866D01*
X154565294Y-121812986D01*
X154427401Y-122070966D01*
X154342487Y-122350889D01*
X154313815Y-122642000D01*
X127660000Y-122642000D01*
X127660000Y-119542000D01*
X135775928Y-119542000D01*
X135775928Y-120742000D01*
X135792992Y-120915254D01*
X135843528Y-121081850D01*
X135925595Y-121235386D01*
X136036038Y-121369962D01*
X136170614Y-121480405D01*
X136272593Y-121534914D01*
X136272205Y-121535198D01*
X136075336Y-121749954D01*
X135924146Y-121998991D01*
X135824446Y-122272739D01*
X135822524Y-122285110D01*
X135943845Y-122515000D01*
X137287000Y-122515000D01*
X137287000Y-122495000D01*
X137541000Y-122495000D01*
X137541000Y-122515000D01*
X138884155Y-122515000D01*
X139005476Y-122285110D01*
X139003554Y-122272739D01*
X138903854Y-121998991D01*
X138752664Y-121749954D01*
X138555795Y-121535198D01*
X138555407Y-121534914D01*
X138657386Y-121480405D01*
X138791962Y-121369962D01*
X138902405Y-121235386D01*
X138984472Y-121081850D01*
X139035008Y-120915254D01*
X139052072Y-120742000D01*
X139052072Y-119542000D01*
X139035008Y-119368746D01*
X138984472Y-119202150D01*
X138902405Y-119048614D01*
X138791962Y-118914038D01*
X138657386Y-118803595D01*
X138503850Y-118721528D01*
X138337254Y-118670992D01*
X138164000Y-118653928D01*
X136664000Y-118653928D01*
X136490746Y-118670992D01*
X136324150Y-118721528D01*
X136170614Y-118803595D01*
X136036038Y-118914038D01*
X135925595Y-119048614D01*
X135843528Y-119202150D01*
X135792992Y-119368746D01*
X135775928Y-119542000D01*
X127660000Y-119542000D01*
X127660000Y-111680144D01*
X127919467Y-112306554D01*
X128339161Y-112934670D01*
X128873330Y-113468839D01*
X129501446Y-113888533D01*
X130199372Y-114177623D01*
X130940285Y-114325000D01*
X131695715Y-114325000D01*
X132436628Y-114177623D01*
X133134554Y-113888533D01*
X133762670Y-113468839D01*
X134296839Y-112934670D01*
X134513124Y-112610976D01*
X145300000Y-112610976D01*
X145300000Y-112869024D01*
X145350342Y-113122113D01*
X145449093Y-113360518D01*
X145592456Y-113575077D01*
X145774923Y-113757544D01*
X145989482Y-113900907D01*
X146227887Y-113999658D01*
X146480976Y-114050000D01*
X146739024Y-114050000D01*
X146992113Y-113999658D01*
X147230518Y-113900907D01*
X147445077Y-113757544D01*
X147627544Y-113575077D01*
X147770907Y-113360518D01*
X147869658Y-113122113D01*
X147920000Y-112869024D01*
X147920000Y-112610976D01*
X151800000Y-112610976D01*
X151800000Y-112869024D01*
X151850342Y-113122113D01*
X151949093Y-113360518D01*
X152092456Y-113575077D01*
X152274923Y-113757544D01*
X152489482Y-113900907D01*
X152727887Y-113999658D01*
X152980976Y-114050000D01*
X153239024Y-114050000D01*
X153492113Y-113999658D01*
X153730518Y-113900907D01*
X153945077Y-113757544D01*
X154127544Y-113575077D01*
X154270907Y-113360518D01*
X154369658Y-113122113D01*
X154420000Y-112869024D01*
X154420000Y-112610976D01*
X154369658Y-112357887D01*
X154270907Y-112119482D01*
X154127544Y-111904923D01*
X153945077Y-111722456D01*
X153730518Y-111579093D01*
X153492113Y-111480342D01*
X153239024Y-111430000D01*
X152980976Y-111430000D01*
X152727887Y-111480342D01*
X152489482Y-111579093D01*
X152274923Y-111722456D01*
X152092456Y-111904923D01*
X151949093Y-112119482D01*
X151850342Y-112357887D01*
X151800000Y-112610976D01*
X147920000Y-112610976D01*
X147869658Y-112357887D01*
X147770907Y-112119482D01*
X147627544Y-111904923D01*
X147445077Y-111722456D01*
X147230518Y-111579093D01*
X146992113Y-111480342D01*
X146739024Y-111430000D01*
X146480976Y-111430000D01*
X146227887Y-111480342D01*
X145989482Y-111579093D01*
X145774923Y-111722456D01*
X145592456Y-111904923D01*
X145449093Y-112119482D01*
X145350342Y-112357887D01*
X145300000Y-112610976D01*
X134513124Y-112610976D01*
X134716533Y-112306554D01*
X135005623Y-111608628D01*
X135153000Y-110867715D01*
X135153000Y-110112285D01*
X135005623Y-109371372D01*
X134716533Y-108673446D01*
X134340703Y-108110976D01*
X145300000Y-108110976D01*
X145300000Y-108369024D01*
X145350342Y-108622113D01*
X145449093Y-108860518D01*
X145592456Y-109075077D01*
X145774923Y-109257544D01*
X145989482Y-109400907D01*
X146227887Y-109499658D01*
X146480976Y-109550000D01*
X146739024Y-109550000D01*
X146992113Y-109499658D01*
X147230518Y-109400907D01*
X147445077Y-109257544D01*
X147627544Y-109075077D01*
X147770907Y-108860518D01*
X147869658Y-108622113D01*
X147920000Y-108369024D01*
X147920000Y-108110976D01*
X151800000Y-108110976D01*
X151800000Y-108369024D01*
X151850342Y-108622113D01*
X151949093Y-108860518D01*
X152092456Y-109075077D01*
X152274923Y-109257544D01*
X152489482Y-109400907D01*
X152727887Y-109499658D01*
X152980976Y-109550000D01*
X153239024Y-109550000D01*
X153492113Y-109499658D01*
X153730518Y-109400907D01*
X153945077Y-109257544D01*
X154127544Y-109075077D01*
X154270907Y-108860518D01*
X154369658Y-108622113D01*
X154420000Y-108369024D01*
X154420000Y-108110976D01*
X154369658Y-107857887D01*
X154270907Y-107619482D01*
X154127544Y-107404923D01*
X153945077Y-107222456D01*
X153730518Y-107079093D01*
X153492113Y-106980342D01*
X153239024Y-106930000D01*
X152980976Y-106930000D01*
X152727887Y-106980342D01*
X152489482Y-107079093D01*
X152274923Y-107222456D01*
X152092456Y-107404923D01*
X151949093Y-107619482D01*
X151850342Y-107857887D01*
X151800000Y-108110976D01*
X147920000Y-108110976D01*
X147869658Y-107857887D01*
X147770907Y-107619482D01*
X147627544Y-107404923D01*
X147445077Y-107222456D01*
X147230518Y-107079093D01*
X146992113Y-106980342D01*
X146739024Y-106930000D01*
X146480976Y-106930000D01*
X146227887Y-106980342D01*
X145989482Y-107079093D01*
X145774923Y-107222456D01*
X145592456Y-107404923D01*
X145449093Y-107619482D01*
X145350342Y-107857887D01*
X145300000Y-108110976D01*
X134340703Y-108110976D01*
X134296839Y-108045330D01*
X133762670Y-107511161D01*
X133134554Y-107091467D01*
X132436628Y-106802377D01*
X131695715Y-106655000D01*
X130940285Y-106655000D01*
X130199372Y-106802377D01*
X129501446Y-107091467D01*
X128873330Y-107511161D01*
X128339161Y-108045330D01*
X127919467Y-108673446D01*
X127660000Y-109299856D01*
X127660000Y-103294000D01*
X143041928Y-103294000D01*
X143041928Y-105494000D01*
X143054188Y-105618482D01*
X143090498Y-105738180D01*
X143149463Y-105848494D01*
X143228815Y-105945185D01*
X143325506Y-106024537D01*
X143435820Y-106083502D01*
X143555518Y-106119812D01*
X143680000Y-106132072D01*
X145880000Y-106132072D01*
X146004482Y-106119812D01*
X146124180Y-106083502D01*
X146234494Y-106024537D01*
X146331185Y-105945185D01*
X146410537Y-105848494D01*
X146469502Y-105738180D01*
X146505812Y-105618482D01*
X146518072Y-105494000D01*
X146518072Y-104790122D01*
X153250825Y-104790122D01*
X153315425Y-105003094D01*
X153465469Y-105308329D01*
X153672178Y-105578427D01*
X153927609Y-105803008D01*
X154221946Y-105973442D01*
X154543877Y-106083179D01*
X154813000Y-105965600D01*
X154813000Y-104521000D01*
X155067000Y-104521000D01*
X155067000Y-105965600D01*
X155336123Y-106083179D01*
X155658054Y-105973442D01*
X155952391Y-105803008D01*
X156207822Y-105578427D01*
X156414531Y-105308329D01*
X156564575Y-105003094D01*
X156629175Y-104790122D01*
X156511125Y-104521000D01*
X155067000Y-104521000D01*
X154813000Y-104521000D01*
X153368875Y-104521000D01*
X153250825Y-104790122D01*
X146518072Y-104790122D01*
X146518072Y-103997878D01*
X153250825Y-103997878D01*
X153368875Y-104267000D01*
X154813000Y-104267000D01*
X154813000Y-102822400D01*
X155067000Y-102822400D01*
X155067000Y-104267000D01*
X156511125Y-104267000D01*
X156629175Y-103997878D01*
X156564575Y-103784906D01*
X156414531Y-103479671D01*
X156207822Y-103209573D01*
X155952391Y-102984992D01*
X155658054Y-102814558D01*
X155336123Y-102704821D01*
X155067000Y-102822400D01*
X154813000Y-102822400D01*
X154543877Y-102704821D01*
X154221946Y-102814558D01*
X153927609Y-102984992D01*
X153672178Y-103209573D01*
X153465469Y-103479671D01*
X153315425Y-103784906D01*
X153250825Y-103997878D01*
X146518072Y-103997878D01*
X146518072Y-103294000D01*
X146505812Y-103169518D01*
X146469502Y-103049820D01*
X146410537Y-102939506D01*
X146331185Y-102842815D01*
X146234494Y-102763463D01*
X146124180Y-102704498D01*
X146004482Y-102668188D01*
X145880000Y-102655928D01*
X143680000Y-102655928D01*
X143555518Y-102668188D01*
X143435820Y-102704498D01*
X143325506Y-102763463D01*
X143228815Y-102842815D01*
X143149463Y-102939506D01*
X143090498Y-103049820D01*
X143054188Y-103169518D01*
X143041928Y-103294000D01*
X127660000Y-103294000D01*
X127660000Y-101194890D01*
X135822524Y-101194890D01*
X135824446Y-101207261D01*
X135924146Y-101481009D01*
X136075336Y-101730046D01*
X136272205Y-101944802D01*
X136507188Y-102117025D01*
X136771255Y-102240096D01*
X137054258Y-102309285D01*
X137287000Y-102165232D01*
X137287000Y-100965000D01*
X137541000Y-100965000D01*
X137541000Y-102165232D01*
X137773742Y-102309285D01*
X138056745Y-102240096D01*
X138320812Y-102117025D01*
X138555795Y-101944802D01*
X138752664Y-101730046D01*
X138903854Y-101481009D01*
X139003554Y-101207261D01*
X139005476Y-101194890D01*
X138884155Y-100965000D01*
X137541000Y-100965000D01*
X137287000Y-100965000D01*
X135943845Y-100965000D01*
X135822524Y-101194890D01*
X127660000Y-101194890D01*
X127660000Y-97738000D01*
X135775928Y-97738000D01*
X135775928Y-98938000D01*
X135792992Y-99111254D01*
X135843528Y-99277850D01*
X135925595Y-99431386D01*
X136036038Y-99565962D01*
X136170614Y-99676405D01*
X136272593Y-99730914D01*
X136272205Y-99731198D01*
X136075336Y-99945954D01*
X135924146Y-100194991D01*
X135824446Y-100468739D01*
X135822524Y-100481110D01*
X135943845Y-100711000D01*
X137287000Y-100711000D01*
X137287000Y-100691000D01*
X137541000Y-100691000D01*
X137541000Y-100711000D01*
X138884155Y-100711000D01*
X138889744Y-100700408D01*
X144663000Y-100700408D01*
X144663000Y-100975592D01*
X144716686Y-101245490D01*
X144821995Y-101499727D01*
X144974880Y-101728535D01*
X145169465Y-101923120D01*
X145398273Y-102076005D01*
X145652510Y-102181314D01*
X145922408Y-102235000D01*
X146197592Y-102235000D01*
X146467490Y-102181314D01*
X146721727Y-102076005D01*
X146950535Y-101923120D01*
X147145120Y-101728535D01*
X147298005Y-101499727D01*
X147403314Y-101245490D01*
X147457000Y-100975592D01*
X147457000Y-100700408D01*
X147863000Y-100700408D01*
X147863000Y-100975592D01*
X147916686Y-101245490D01*
X148021995Y-101499727D01*
X148174880Y-101728535D01*
X148369465Y-101923120D01*
X148598273Y-102076005D01*
X148852510Y-102181314D01*
X149122408Y-102235000D01*
X149397592Y-102235000D01*
X149667490Y-102181314D01*
X149921727Y-102076005D01*
X150150535Y-101923120D01*
X150345120Y-101728535D01*
X150360000Y-101706266D01*
X150374880Y-101728535D01*
X150569465Y-101923120D01*
X150798273Y-102076005D01*
X151052510Y-102181314D01*
X151322408Y-102235000D01*
X151597592Y-102235000D01*
X151867490Y-102181314D01*
X152121727Y-102076005D01*
X152350535Y-101923120D01*
X152545120Y-101728535D01*
X152560000Y-101706266D01*
X152574880Y-101728535D01*
X152769465Y-101923120D01*
X152998273Y-102076005D01*
X153252510Y-102181314D01*
X153522408Y-102235000D01*
X153797592Y-102235000D01*
X154067490Y-102181314D01*
X154321727Y-102076005D01*
X154550535Y-101923120D01*
X154745120Y-101728535D01*
X154898005Y-101499727D01*
X155003314Y-101245490D01*
X155057000Y-100975592D01*
X155057000Y-100700408D01*
X155003314Y-100430510D01*
X154923574Y-100238000D01*
X160667928Y-100238000D01*
X160667928Y-101438000D01*
X160684992Y-101611254D01*
X160735528Y-101777850D01*
X160817595Y-101931386D01*
X160928038Y-102065962D01*
X161062614Y-102176405D01*
X161216150Y-102258472D01*
X161382746Y-102309008D01*
X161556000Y-102326072D01*
X163056000Y-102326072D01*
X163229254Y-102309008D01*
X163395850Y-102258472D01*
X163549386Y-102176405D01*
X163683962Y-102065962D01*
X163794405Y-101931386D01*
X163876472Y-101777850D01*
X163927008Y-101611254D01*
X163944072Y-101438000D01*
X163944072Y-100238000D01*
X163927008Y-100064746D01*
X163876472Y-99898150D01*
X163794405Y-99744614D01*
X163683962Y-99610038D01*
X163549386Y-99499595D01*
X163447407Y-99445086D01*
X163447795Y-99444802D01*
X163644664Y-99230046D01*
X163795854Y-98981009D01*
X163895554Y-98707261D01*
X163897476Y-98694890D01*
X163776155Y-98465000D01*
X162433000Y-98465000D01*
X162433000Y-98485000D01*
X162179000Y-98485000D01*
X162179000Y-98465000D01*
X160835845Y-98465000D01*
X160714524Y-98694890D01*
X160716446Y-98707261D01*
X160816146Y-98981009D01*
X160967336Y-99230046D01*
X161164205Y-99444802D01*
X161164593Y-99445086D01*
X161062614Y-99499595D01*
X160928038Y-99610038D01*
X160817595Y-99744614D01*
X160735528Y-99898150D01*
X160684992Y-100064746D01*
X160667928Y-100238000D01*
X154923574Y-100238000D01*
X154898005Y-100176273D01*
X154745120Y-99947465D01*
X154550535Y-99752880D01*
X154321727Y-99599995D01*
X154067490Y-99494686D01*
X153797592Y-99441000D01*
X153522408Y-99441000D01*
X153252510Y-99494686D01*
X152998273Y-99599995D01*
X152769465Y-99752880D01*
X152574880Y-99947465D01*
X152560000Y-99969734D01*
X152545120Y-99947465D01*
X152350535Y-99752880D01*
X152121727Y-99599995D01*
X151867490Y-99494686D01*
X151597592Y-99441000D01*
X151322408Y-99441000D01*
X151052510Y-99494686D01*
X150798273Y-99599995D01*
X150569465Y-99752880D01*
X150374880Y-99947465D01*
X150360000Y-99969734D01*
X150345120Y-99947465D01*
X150150535Y-99752880D01*
X149921727Y-99599995D01*
X149667490Y-99494686D01*
X149397592Y-99441000D01*
X149122408Y-99441000D01*
X148852510Y-99494686D01*
X148598273Y-99599995D01*
X148369465Y-99752880D01*
X148174880Y-99947465D01*
X148021995Y-100176273D01*
X147916686Y-100430510D01*
X147863000Y-100700408D01*
X147457000Y-100700408D01*
X147403314Y-100430510D01*
X147298005Y-100176273D01*
X147145120Y-99947465D01*
X146950535Y-99752880D01*
X146721727Y-99599995D01*
X146467490Y-99494686D01*
X146197592Y-99441000D01*
X145922408Y-99441000D01*
X145652510Y-99494686D01*
X145398273Y-99599995D01*
X145169465Y-99752880D01*
X144974880Y-99947465D01*
X144821995Y-100176273D01*
X144716686Y-100430510D01*
X144663000Y-100700408D01*
X138889744Y-100700408D01*
X139005476Y-100481110D01*
X139003554Y-100468739D01*
X138903854Y-100194991D01*
X138752664Y-99945954D01*
X138555795Y-99731198D01*
X138555407Y-99730914D01*
X138657386Y-99676405D01*
X138791962Y-99565962D01*
X138902405Y-99431386D01*
X138984472Y-99277850D01*
X139035008Y-99111254D01*
X139052072Y-98938000D01*
X139052072Y-97981110D01*
X160714524Y-97981110D01*
X160835845Y-98211000D01*
X162179000Y-98211000D01*
X162179000Y-97010768D01*
X162433000Y-97010768D01*
X162433000Y-98211000D01*
X163776155Y-98211000D01*
X163897476Y-97981110D01*
X163895554Y-97968739D01*
X163795854Y-97694991D01*
X163644664Y-97445954D01*
X163447795Y-97231198D01*
X163212812Y-97058975D01*
X162948745Y-96935904D01*
X162665742Y-96866715D01*
X162433000Y-97010768D01*
X162179000Y-97010768D01*
X161946258Y-96866715D01*
X161663255Y-96935904D01*
X161399188Y-97058975D01*
X161164205Y-97231198D01*
X160967336Y-97445954D01*
X160816146Y-97694991D01*
X160716446Y-97968739D01*
X160714524Y-97981110D01*
X139052072Y-97981110D01*
X139052072Y-97738000D01*
X139035008Y-97564746D01*
X138984472Y-97398150D01*
X138902405Y-97244614D01*
X138791962Y-97110038D01*
X138657386Y-96999595D01*
X138503850Y-96917528D01*
X138337254Y-96866992D01*
X138164000Y-96849928D01*
X136664000Y-96849928D01*
X136490746Y-96866992D01*
X136324150Y-96917528D01*
X136170614Y-96999595D01*
X136036038Y-97110038D01*
X135925595Y-97244614D01*
X135843528Y-97398150D01*
X135792992Y-97564746D01*
X135775928Y-97738000D01*
X127660000Y-97738000D01*
X127660000Y-96723565D01*
X145264040Y-96723565D01*
X145331020Y-96963656D01*
X145580048Y-97080756D01*
X145847135Y-97147023D01*
X146122017Y-97159910D01*
X146394133Y-97118922D01*
X146653023Y-97025636D01*
X146768980Y-96963656D01*
X146835960Y-96723565D01*
X146050000Y-95937605D01*
X145264040Y-96723565D01*
X127660000Y-96723565D01*
X127660000Y-95830017D01*
X144648090Y-95830017D01*
X144689078Y-96102133D01*
X144782364Y-96361023D01*
X144844344Y-96476980D01*
X145084435Y-96543960D01*
X145870395Y-95758000D01*
X146229605Y-95758000D01*
X147015565Y-96543960D01*
X147255656Y-96476980D01*
X147372756Y-96227952D01*
X147439023Y-95960865D01*
X147451910Y-95685983D01*
X147410922Y-95413867D01*
X147317636Y-95154977D01*
X147255656Y-95039020D01*
X147015565Y-94972040D01*
X146229605Y-95758000D01*
X145870395Y-95758000D01*
X145084435Y-94972040D01*
X144844344Y-95039020D01*
X144727244Y-95288048D01*
X144660977Y-95555135D01*
X144648090Y-95830017D01*
X127660000Y-95830017D01*
X127660000Y-95282279D01*
X127674722Y-95132131D01*
X127708953Y-95018754D01*
X127764555Y-94914181D01*
X127839407Y-94822404D01*
X127930664Y-94746909D01*
X128034844Y-94690581D01*
X128147976Y-94655560D01*
X128296022Y-94640000D01*
X145306566Y-94640000D01*
X145264040Y-94792435D01*
%TD*%
M02*
