%TF.GenerationSoftware,KiCad,Pcbnew,5.1.6-c6e7f7d~87~ubuntu18.04.1*%
%TF.CreationDate,2020-08-08T17:14:56-07:00*%
%TF.ProjectId,Cough-GoNoGo,436f7567-682d-4476-9f4e-6f476f2e6b69,A.01*%
%TF.SameCoordinates,Original*%
%TF.FileFunction,Soldermask,Bot*%
%TF.FilePolarity,Negative*%
%FSLAX46Y46*%
G04 Gerber Fmt 4.6, Leading zero omitted, Abs format (unit mm)*
G04 Created by KiCad (PCBNEW 5.1.6-c6e7f7d~87~ubuntu18.04.1) date 2020-08-08 17:14:56*
%MOMM*%
%LPD*%
G01*
G04 APERTURE LIST*
%ADD10C,6.501600*%
%ADD11O,2.101600X1.801600*%
%ADD12R,2.301600X2.301600*%
%ADD13O,2.301600X2.301600*%
%ADD14C,1.625600*%
%ADD15C,1.451600*%
G04 APERTURE END LIST*
D10*
%TO.C,H2*%
X168402000Y-110490000D03*
%TD*%
%TO.C,H1*%
X131318000Y-110490000D03*
%TD*%
%TO.C,CN1*%
G36*
G01*
X136628141Y-97437200D02*
X138199859Y-97437200D01*
G75*
G02*
X138464800Y-97702141I0J-264941D01*
G01*
X138464800Y-98973859D01*
G75*
G02*
X138199859Y-99238800I-264941J0D01*
G01*
X136628141Y-99238800D01*
G75*
G02*
X136363200Y-98973859I0J264941D01*
G01*
X136363200Y-97702141D01*
G75*
G02*
X136628141Y-97437200I264941J0D01*
G01*
G37*
D11*
X137414000Y-100838000D03*
%TD*%
%TO.C,CN2*%
G36*
G01*
X136628141Y-119241200D02*
X138199859Y-119241200D01*
G75*
G02*
X138464800Y-119506141I0J-264941D01*
G01*
X138464800Y-120777859D01*
G75*
G02*
X138199859Y-121042800I-264941J0D01*
G01*
X136628141Y-121042800D01*
G75*
G02*
X136363200Y-120777859I0J264941D01*
G01*
X136363200Y-119506141D01*
G75*
G02*
X136628141Y-119241200I264941J0D01*
G01*
G37*
X137414000Y-122642000D03*
%TD*%
%TO.C,CN3*%
G36*
G01*
X163091859Y-101738800D02*
X161520141Y-101738800D01*
G75*
G02*
X161255200Y-101473859I0J264941D01*
G01*
X161255200Y-100202141D01*
G75*
G02*
X161520141Y-99937200I264941J0D01*
G01*
X163091859Y-99937200D01*
G75*
G02*
X163356800Y-100202141I0J-264941D01*
G01*
X163356800Y-101473859D01*
G75*
G02*
X163091859Y-101738800I-264941J0D01*
G01*
G37*
X162306000Y-98338000D03*
%TD*%
%TO.C,CN4*%
X162306000Y-120142000D03*
G36*
G01*
X163091859Y-123542800D02*
X161520141Y-123542800D01*
G75*
G02*
X161255200Y-123277859I0J264941D01*
G01*
X161255200Y-122006141D01*
G75*
G02*
X161520141Y-121741200I264941J0D01*
G01*
X163091859Y-121741200D01*
G75*
G02*
X163356800Y-122006141I0J-264941D01*
G01*
X163356800Y-123277859D01*
G75*
G02*
X163091859Y-123542800I-264941J0D01*
G01*
G37*
%TD*%
%TO.C,CN5*%
G36*
G01*
X155170141Y-119241200D02*
X156741859Y-119241200D01*
G75*
G02*
X157006800Y-119506141I0J-264941D01*
G01*
X157006800Y-120777859D01*
G75*
G02*
X156741859Y-121042800I-264941J0D01*
G01*
X155170141Y-121042800D01*
G75*
G02*
X154905200Y-120777859I0J264941D01*
G01*
X154905200Y-119506141D01*
G75*
G02*
X155170141Y-119241200I264941J0D01*
G01*
G37*
X155956000Y-122642000D03*
%TD*%
D12*
%TO.C,D1*%
X144780000Y-104394000D03*
D13*
X154940000Y-104394000D03*
%TD*%
D14*
%TO.C,K1*%
X146050000Y-95758000D03*
X149260000Y-95758000D03*
X151460000Y-95758000D03*
X153660000Y-95758000D03*
X153660000Y-100838000D03*
X151460000Y-100838000D03*
X149260000Y-100838000D03*
X146060000Y-100838000D03*
%TD*%
D15*
%TO.C,S1*%
X153110000Y-112740000D03*
X153110000Y-108240000D03*
X146610000Y-108240000D03*
X146610000Y-112740000D03*
%TD*%
M02*
