M48
; DRILL file {KiCad 5.1.6-c6e7f7d~87~ubuntu18.04.1} date Sat Aug  8 17:15:51 2020
; FORMAT={-:-/ absolute / inch / decimal}
; #@! TF.CreationDate,2020-08-08T17:15:51-07:00
; #@! TF.GenerationSoftware,Kicad,Pcbnew,5.1.6-c6e7f7d~87~ubuntu18.04.1
FMAT,2
INCH
T1C0.0256
T2C0.0300
T3C0.0394
T4C0.0433
T5C0.1260
%
G90
G05
T1
X5.772Y-4.2614
X5.772Y-4.4386
X6.028Y-4.2614
X6.028Y-4.4386
T2
X5.75Y-3.77
X5.7504Y-3.97
X5.8764Y-3.77
X5.8764Y-3.97
X5.963Y-3.77
X5.963Y-3.97
X6.0496Y-3.77
X6.0496Y-3.97
T3
X6.39Y-3.8716
X6.39Y-3.97
X5.41Y-3.8716
X5.41Y-3.97
X6.39Y-4.73
X6.39Y-4.8284
X6.14Y-4.73
X6.14Y-4.8284
X5.41Y-4.73
X5.41Y-4.8284
T4
X5.7Y-4.11
X6.1Y-4.11
T5
X6.63Y-4.35
X5.17Y-4.35
T0
M30
